<?xml version="1.0" encoding="UTF-8"?>
<svg width="26px" height="19px" viewBox="0 0 26 19" version="1.1" xmlns="http://www.w3.org/2000/svg" xmlns:xlink="http://www.w3.org/1999/xlink">
    <!-- Generator: Sketch 52.2 (67145) - http://www.bohemiancoding.com/sketch -->
    <title>传感器</title>
    <desc>Created with Sketch.</desc>
    <g id="Page-1" stroke="none" stroke-width="1" fill="none" fill-rule="evenodd">
        <g id="传感器" fill="#50CF99" fill-rule="nonzero">
            <path d="M22.3230508,0.0135284468 L21.063281,1.28109059 C25.2451971,5.95306146 25.231344,13.0579897 21.063281,17.7689225 L22.3620128,19.0615935 C27.1924289,14.0311727 27.1794416,5.01797463 22.3230508,0.0135284468 Z M19.3757957,2.97030765 L18.0640766,4.27596591 C20.6095908,7.29768167 20.6095908,11.7393441 18.077064,14.7861687 L19.3757957,16.0788397 C22.6217591,12.3151152 22.6217591,6.70892332 19.3757957,2.97030765 Z M4.90965607,1.28109059 L3.65075215,0.0135284468 C-1.20563862,5.01797463 -1.21862594,14.0311727 3.62477752,19.0615935 L4.92350923,17.7689225 C0.74159313,13.0579897 0.74159313,5.95306146 4.90965607,1.28109059 Z M6.59800729,2.97030765 C3.35117802,6.70892332 3.35117802,12.3151152 6.59800729,16.0788397 L7.896739,14.7861687 C5.36421217,11.7393441 5.36421217,7.29681589 7.9088605,4.27596591 L6.59800729,2.97030765 Z M12.9730483,5.36430308 C10.6613059,5.36430308 8.77901075,7.24573241 8.77901075,9.55054829 C8.77808532,10.6623648 9.21993602,11.7287837 10.0069212,12.5141442 C10.7939064,13.2995048 11.8612361,13.7391507 12.9730483,13.7359277 C15.2847908,13.7359277 17.167086,11.8544983 17.1670859,9.55054829 C17.1646962,7.23649593 15.2871012,5.36238941 12.9730483,5.36430308 Z" id="形状"></path>
        </g>
    </g>
</svg>