<?xml version="1.0" encoding="UTF-8"?>
<svg width="26px" height="26px" viewBox="0 0 26 26" version="1.1" xmlns="http://www.w3.org/2000/svg" xmlns:xlink="http://www.w3.org/1999/xlink">
    <!-- Generator: Sketch 52.2 (67145) - http://www.bohemiancoding.com/sketch -->
    <title>信号 copy</title>
    <desc>Created with Sketch.</desc>
    <g id="Page-1" stroke="none" stroke-width="1" fill="none" fill-rule="evenodd">
        <g id="无信号" transform="translate(0.000000, 2.000000)">
            <polygon id="路径" fill="#CCCCCC" points="0 14.7789474 3.79012446 14.7789474 3.79012446 20.8 0 20.8"></polygon>
            <polygon id="路径" fill="#CCCCCC" points="5.41446351 11.4947368 9.20458797 11.4947368 9.20458797 20.8 5.41446351 20.8 5.41446351 11.4947368"></polygon>
            <polygon id="路径" fill="#CCCCCC" points="11.3703734 7.6631579 14.6190515 7.6631579 14.6190515 20.8 11.3703734 20.8"></polygon>
            <polygon id="路径" fill="#CCCCCC" points="16.7848369 3.83157895 20.5749614 3.83157895 20.5749614 20.8 16.7848369 20.8"></polygon>
            <polygon id="路径" fill="#CCCCCC" points="22.1993004 0 25.9894249 0 25.9894249 20.8 22.1993004 20.8 22.1993004 0"></polygon>
            <path d="M25.951865,20.4468779 L23.2757009,15.1808668 C23.2188121,15.0689446 23.1136905,15 22.9999288,15 C22.8861671,15 22.7810454,15.0689446 22.7241566,15.1808668 L20.0426613,20.457339 C19.9857794,20.5692715 19.9857796,20.7071769 20.0426619,20.8191092 C20.0995442,20.9310415 20.2046672,20.9999963 20.3184334,21 L25.6815643,21 C25.8574299,21 26,20.8380287 26,20.6382234 C26,20.5679528 25.9823714,20.5023819 25.9518583,20.4468855 L25.951865,20.4468779 Z" id="路径" fill="#D81E06" fill-rule="nonzero"></path>
            <path d="M23.424747,20.0454628 C23.424747,20.2574501 23.2501296,20.4293018 23.0347423,20.4293018 C22.819355,20.4293018 22.644747,20.2574501 22.644747,20.0454628 L22.644747,20.0331502 C22.644747,19.8211535 22.819355,19.6493018 23.0347423,19.6493018 C23.2501296,19.6493018 23.424747,19.8211535 23.424747,20.0331502 L23.424747,20.0454628 Z" id="路径" fill="#FFFFFF" fill-rule="nonzero"></path>
            <path d="M22.999425,19.3600132 C22.8059148,19.3600132 22.6490264,19.2175341 22.6490264,19.0417619 L22.6490264,16.7381236 C22.6490264,16.5623514 22.8059148,16.4198723 22.999425,16.4198723 C23.1929524,16.4198723 23.3498322,16.5623514 23.3498322,16.7381236 L23.3498322,19.0417541 C23.3498322,19.2175341 23.1929524,19.3600132 22.999425,19.3600132 Z" id="路径" fill="#FFFFFF" fill-rule="nonzero"></path>
        </g>
    </g>
</svg>