<?xml version="1.0" encoding="UTF-8"?>
<svg width="26px" height="23px" viewBox="0 0 26 23" version="1.1" xmlns="http://www.w3.org/2000/svg" xmlns:xlink="http://www.w3.org/1999/xlink">
    <!-- Generator: Sketch 52.2 (67145) - http://www.bohemiancoding.com/sketch -->
    <title>告警</title>
    <desc>Created with Sketch.</desc>
    <g id="Page-1" stroke="none" stroke-width="1" fill="none" fill-rule="evenodd">
        <g id="告警" fill-rule="nonzero">
            <path d="M25.7803,20.7650444 L14.1936311,0.696395556 C13.9473264,0.26986285 13.4921939,0.00711648344 12.9996533,0.00711648344 C12.5071128,0.00711648344 12.0519803,0.26986285 11.8056756,0.696395556 L0.195924444,20.8049111 C-0.0503504237,21.2314836 -0.050349375,21.7570377 0.195927196,22.1836092 C0.442203766,22.6101807 0.897342166,22.8729661 1.38990222,22.87298 L24.6100111,22.87298 C25.3714356,22.87298 25.9887044,22.2557111 25.9887044,21.4942578 C25.9887044,21.2264578 25.91238,20.9765689 25.7802711,20.7650733 L25.7803,20.7650444 Z" id="路径" fill="#D81E06"></path>
            <path d="M14.6107376,18.9648951 C14.6107376,19.8481755 13.8831648,20.5642242 12.9857178,20.5642242 C12.0882708,20.5642242 11.3607376,19.8481755 11.3607376,18.9648951 L11.3607376,18.9135925 C11.3607376,18.030273 12.0882708,17.3142242 12.9857178,17.3142242 C13.8831648,17.3142242 14.6107376,18.030273 14.6107376,18.9135925 L14.6107376,18.9648951 Z" id="路径" fill="#FFFFFF"></path>
            <path d="M12.9999711,16.1698509 C12.3469378,16.1698509 11.8174911,15.640462 11.8174911,14.9873709 L11.8174911,7.24492889 C11.8174911,6.59183778 12.3469378,6.06244889 12.9999711,6.06244889 C13.6530622,6.06244889 14.18248,6.59183778 14.18248,7.24492889 L14.18248,14.987342 C14.18248,15.640462 13.6530622,16.1698509 12.9999711,16.1698509 Z" id="路径" fill="#FFFFFF"></path>
        </g>
    </g>
</svg>