<?xml version="1.0" encoding="UTF-8"?>
<svg width="26px" height="26px" viewBox="0 0 26 26" version="1.1" xmlns="http://www.w3.org/2000/svg" xmlns:xlink="http://www.w3.org/1999/xlink">
    <!-- Generator: Sketch 52.2 (67145) - http://www.bohemiancoding.com/sketch -->
    <title>控制器信号</title>
    <desc>Created with Sketch.</desc>
    <g id="Page-1" stroke="none" stroke-width="1" fill="none" fill-rule="evenodd">
        <g id="控制器信号" fill="#50CF99">
            <path d="M16.089822,25.94079 L2.61309586,25.94079 C1.19123943,25.94079 0.0166623981,24.766213 0.0166623709,23.3443566 L0.0166623709,9.24943202 C0.0166623709,7.82757559 1.19123943,6.65299856 2.61309586,6.65299853 L16.089822,6.65299853 C17.5116784,6.65299853 18.6862554,7.82757559 18.6862554,9.24943202 L18.6862554,23.3443566 C18.7480753,24.766213 17.5116784,25.94079 16.089822,25.94079 Z M2.61309586,7.82757559 C1.87125772,7.82757559 1.25305929,8.44577405 1.25305926,9.18761217 L1.25305926,23.2825367 C1.25305926,24.0243749 1.87125772,24.6425733 2.61309586,24.6425733 L16.089822,24.6425733 C16.8316601,24.6425733 17.4498585,24.0243748 17.4498585,23.2825367 L17.4498585,9.24943202 C17.4498585,8.50759388 16.8316601,7.88939545 16.089822,7.88939542 L2.61309586,7.88939542 L2.61309586,7.82757559 Z M21.2826889,8.56941374 C20.9117698,8.56941374 20.6644904,8.26031451 20.6644905,7.88939542 C20.7881301,5.97298025 19.3662737,4.36566427 17.5116784,4.24202461 C17.2025792,4.24202461 16.9552998,4.24202461 16.6462006,4.30384444 C16.3371013,4.3656643 15.9661823,4.18020476 15.9043624,3.8092857 C15.8425426,3.50018647 16.0280021,3.12926741 16.3989212,3.06744756 C16.7698403,3.0056277 17.2025792,2.94380787 17.5734982,3.00562773 C20.1081119,3.19108727 22.024527,5.41660167 21.8390675,7.95121528 C21.9008873,8.32213434 21.6536079,8.56941374 21.2826889,8.56941374 Z" id="形状" fill-rule="nonzero"></path>
            <path d="M24.1882216,9.80581062 L24.0645819,9.80581062 C23.7554827,9.74399077 23.5082033,9.43489156 23.5700231,9.06397248 C23.631843,8.81669311 23.631843,8.56941374 23.631843,8.32213434 C23.8791224,4.61294367 21.0354095,1.46013158 17.3262189,1.21285221 C16.8316601,1.15103235 16.3371013,1.21285221 15.8425426,1.27467207 C15.5334434,1.33649192 15.1625243,1.08921253 15.1625243,0.780113324 C15.1007044,0.471014095 15.3479838,0.100095037 15.6570831,0.10009501 C16.2134617,0.038275153 16.8316601,-0.0235446764 17.3880387,0.0382751802 C21.7772476,0.285554552 25.1773391,4.05656507 24.8682399,8.38395419 C24.8682399,8.69305342 24.80642,9.00215265 24.7446002,9.24943202 C24.7446002,9.55853125 24.4973208,9.80581062 24.1882216,9.80581062 Z" id="路径"></path>
            <path d="M6.50774607,17.2241919 C5.45680872,17.2241919 4.52951103,16.3587141 4.52951103,15.2459569 C4.52951103,14.1331997 5.39498886,13.2677219 6.50774607,13.2677219 C7.55868341,13.2677219 8.4859811,14.1331997 8.48598107,15.2459569 C8.48598107,16.2968943 7.62050324,17.224192 6.50774607,17.2241919 Z M6.50673298,14.2645669 C5.98512805,14.2645669 5.46352308,14.6992377 5.46352308,15.3077768 C5.46352308,15.9163159 5.89819387,16.3509867 6.50673298,16.3509866 C7.11527208,16.3509866 7.54994287,15.9163158 7.54994283,15.3077768 C7.54994279,14.6992377 7.11527204,14.2645669 6.50673298,14.2645669 Z" id="形状" fill-rule="nonzero"></path>
            <path d="M6.50774607,14.1331997 C6.13682701,14.1331997 5.88954761,13.8859204 5.88954761,13.5150013 L5.88954761,11.3513067 C5.88954761,10.9803877 6.13682698,10.7331083 6.50774607,10.7331083 C6.87866515,10.7331083 7.12594452,10.9803877 7.1259445,11.3513067 L7.1259445,13.5150013 C7.1259445,13.8241005 6.87866512,14.1331997 6.50774607,14.1331997 Z M6.50774607,21.7988604 C6.13682701,21.7988604 5.88954761,21.5515811 5.88954761,21.180662 L5.88954759,17.1814475 C5.88954759,16.8105284 6.13682697,16.563249 6.50774605,16.563249 C6.87866514,16.563249 7.12594451,16.8105284 7.12594448,17.1814475 L7.1259445,21.180662 C7.1259445,21.5515811 6.87866512,21.7988605 6.50774607,21.7988604 Z" id="形状" fill-rule="nonzero"></path>
            <path d="M12.1951718,19.2642468 C11.1442344,19.2642468 10.2169367,18.398769 10.2169367,17.2860118 C10.2169367,16.1732546 11.0824146,15.3077768 12.1951718,15.3077768 C13.307929,15.3077768 14.1734068,16.1732546 14.1734068,17.2860118 C14.1115869,18.398769 13.2461091,19.2642468 12.1951718,19.2642468 Z M11.1800381,17.2241919 C11.1800381,17.832731 11.6147089,18.2674018 12.223248,18.2674018 C12.8317871,18.2674018 13.2664579,17.832731 13.2664579,17.2241919 C13.2664579,16.6156529 12.8317871,16.1809821 12.223248,16.1809821 C11.7016431,16.1809821 11.1800381,16.6156529 11.1800381,17.2241919 Z" id="形状" fill-rule="nonzero"></path>
            <path d="M12.1951718,21.7988604 C11.8242527,21.7988604 11.5769733,21.5515811 11.5769733,21.180662 L11.5769733,19.0169674 C11.5769733,18.6460484 11.8242527,18.398769 12.1951718,18.398769 C12.5660908,18.398769 12.8133702,18.6460484 12.8133702,19.0169674 L12.8133702,21.180662 C12.8133702,21.5515811 12.504271,21.7988605 12.1951718,21.7988604 Z M11.5769733,15.3712766 L11.5769733,11.3513067 C11.5769733,10.9803877 11.8242527,10.7331083 12.1951718,10.7331083 C12.5660908,10.7331083 12.8133702,10.9803877 12.8133702,11.3513067 L12.8133702,15.3712766 C12.8133702,15.6803759 12.5042709,15.9894751 12.1951717,15.9894751 C11.8242527,15.9894751 11.5769733,15.7421957 11.5769733,15.3712766 Z" id="形状" fill-rule="nonzero"></path>
        </g>
    </g>
</svg>