<?xml version="1.0" encoding="UTF-8"?>
<svg width="26px" height="26px" viewBox="0 0 26 26" version="1.1" xmlns="http://www.w3.org/2000/svg" xmlns:xlink="http://www.w3.org/1999/xlink">
    <!-- Generator: Sketch 52.2 (67145) - http://www.bohemiancoding.com/sketch -->
    <title>电压</title>
    <desc>Created with Sketch.</desc>
    <g id="Page-1" stroke="none" stroke-width="1" fill="none" fill-rule="evenodd">
        <g id="电压" fill="#50CF99">
            <path d="M13.0016699,26 C11.248298,26 9.5450225,25.6560051 7.94193964,24.9780347 C6.39229289,24.3234425 5.0029544,23.3849711 3.81066154,22.1926782 C2.61836867,21.0003854 1.67989725,19.6077071 1.02530507,18.0614001 C0.343994854,16.4583173 0,14.7550417 0,13.0016699 C0,11.248298 0.343994854,9.5450225 1.02196532,7.94193964 C1.67655749,6.39229289 2.61502891,5.0029544 3.80732178,3.81066154 C4.99961465,2.61836867 6.39229287,1.67989725 7.93859988,1.02530507 C9.54168274,0.347334609 11.2449583,0.00333975586 12.9983301,0.00333975586 C14.751702,0.00333975586 16.4549775,0.347334609 18.0580604,1.02530507 C19.6077071,1.67989725 20.9970456,2.61836867 22.1893385,3.81066154 C23.3816313,5.0029544 24.3201028,6.39563262 24.9746949,7.94193964 C25.6526654,9.5450225 25.9966602,11.248298 25.9966602,13.0016699 C25.9966602,14.7550418 25.6526654,16.4583173 24.9746949,18.0614001 C24.3201028,19.6110469 23.3816313,21.0003854 22.1893385,22.1926782 C20.9970456,23.3849711 19.6043674,24.3234425 18.0580604,24.9780347 C16.4583173,25.6560051 14.7550417,26 13.0016699,26 Z M13.0016699,1.83686577 C6.84315993,1.83686577 1.83686577,6.84315993 1.83686577,13.0016699 C1.83686577,19.1601798 6.84315993,24.166474 13.0016699,24.166474 C19.1601798,24.166474 24.166474,19.1601798 24.166474,13.0016699 C24.166474,6.84315996 19.1568401,1.83686577 13.0016699,1.83686577 Z" id="形状" fill-rule="nonzero"></path>
            <path d="M13.0016699,19.4974952 C12.6777136,19.4974952 12.3771355,19.3271676 12.2101477,19.0466281 L6.883237,10.0459859 C6.6260758,9.60847786 6.7696853,9.04739885 7.20719332,8.78689787 C7.64470134,8.52973667 8.20578035,8.67334617 8.46628131,9.11085421 L13.0016699,16.7755941 L17.5337187,9.11085421 C17.7908799,8.6733462 18.3552987,8.52973667 18.7928067,8.78689787 C19.2303147,9.04405907 19.3739242,9.60847784 19.116763,10.0459859 L13.7898523,19.0466281 C13.6262042,19.3271676 13.3256262,19.4974952 13.0016699,19.4974952 Z" id="路径"></path>
        </g>
    </g>
</svg>