<?xml version="1.0" encoding="UTF-8"?>
<svg width="26px" height="26px" viewBox="0 0 26 26" version="1.1" xmlns="http://www.w3.org/2000/svg" xmlns:xlink="http://www.w3.org/1999/xlink">
    <!-- Generator: Sketch 52.2 (67145) - http://www.bohemiancoding.com/sketch -->
    <title>电量</title>
    <desc>Created with Sketch.</desc>
    <g id="Page-1" stroke="none" stroke-width="1" fill="none" fill-rule="evenodd">
        <g id="电量" transform="translate(0.000000, 4.000000)">
            <polygon id="路径" fill="#E6E6E6" points="21.778691 3.65860529 21.778691 14.0516924 19.0674722 14.0516924 19.0674722 3.65860529"></polygon>
            <polygon id="路径" fill="#3CCF9E" points="17.6033969 3.65860529 17.6033969 14.0516924 14.892178 14.0516924 14.892178 3.65860529"></polygon>
            <polygon id="路径" fill="#3CCF9E" points="13.4281027 3.65860529 13.4281027 14.0516924 10.7169451 14.0516924 10.7169451 3.65860529"></polygon>
            <polygon id="路径" fill="#3CCF9E" points="9.25280863 3.65860529 9.25280863 14.0516924 6.54165098 14.0516924 6.54165098 3.65860529"></polygon>
            <polygon id="路径" fill="#3CCF9E" points="5.07751451 3.65860529 5.07751451 14.0516924 2.36635686 14.0516924 2.36635686 3.65860529"></polygon>
            <path d="M24.3161075,11.7575135 L25.1022816,11.7575135 C25.3784239,11.7575135 25.6022816,11.5336559 25.6022816,11.2575135 L25.6022816,6.45272294 C25.6022816,6.17658057 25.3784239,5.95272294 25.1022816,5.95272294 L24.3161686,5.95272294 L24.3161686,2.41661 C24.3161686,1.86432525 23.8684534,1.41661 23.3161686,1.41661 L1.01944392,1.41661 C0.467159172,1.41661 0.0194439214,1.86432525 0.0194439214,2.41661 L0.0194439214,15.2936876 C0.0194439214,15.8459724 0.467159172,16.2936876 1.01944392,16.2936876 L23.3161075,16.2936876 C23.8683922,16.2936876 24.3161075,15.8459724 24.3161075,15.2936876 L24.3161075,11.7575135 Z M1.54873333,14.7989629 L1.54873333,2.91133471 L22.7867569,2.91133471 L22.7867569,14.7989629 L1.54873333,14.7989629 Z" id="形状" fill="#3CCF9E" fill-rule="nonzero"></path>
        </g>
    </g>
</svg>