<?xml version="1.0" encoding="UTF-8"?>
<svg width="26px" height="26px" viewBox="0 0 26 26" version="1.1" xmlns="http://www.w3.org/2000/svg" xmlns:xlink="http://www.w3.org/1999/xlink">
    <!-- Generator: Sketch 52.2 (67145) - http://www.bohemiancoding.com/sketch -->
    <title>维度</title>
    <desc>Created with Sketch.</desc>
    <g id="Page-1" stroke="none" stroke-width="1" fill="none" fill-rule="evenodd">
        <g id="维度" fill-rule="nonzero">
            <path d="M13,26 C5.82029825,26 0,20.1797017 0,13 C0,5.82029825 5.82029825,0 13,0 C20.1797017,0 26,5.82029825 26,13 C26,20.1797017 20.1797017,26 13,26 Z M12.9936523,24.5559082 C19.344927,24.5559082 24.4936523,19.4071828 24.4936523,13.0559082 C24.4936523,6.70463358 19.344927,1.5559082 12.9936523,1.5559082 C6.64237772,1.5559082 1.49365234,6.70463358 1.49365234,13.0559082 C1.49365234,19.4071828 6.64237772,24.5559082 12.9936523,24.5559082 Z" id="合并形状" fill="#50CF98"></path>
            <path d="M3,6 C5.75305176,7.7265625 15.2213135,9.92480469 22.7426758,6" id="路径-2" stroke="#50CF99"></path>
            <path d="M3,18 C5.75305176,19.7265625 15.2213135,21.9248047 22.7426758,18" id="路径-2-copy" stroke="#50CF99" transform="translate(12.871338, 19.097103) scale(1, -1) translate(-12.871338, -19.097103) "></path>
            <path d="M0.792724609,13.3048828 L25.065918,13.3048828" id="路径-3" stroke="#50CF99"></path>
            <path d="M12.8945312,0.325195312 L12.8945312,25.3339844" id="路径-4" stroke="#50CF99"></path>
        </g>
    </g>
</svg>