<?xml version="1.0" encoding="UTF-8"?>
<svg width="26px" height="26px" viewBox="0 0 26 26" version="1.1" xmlns="http://www.w3.org/2000/svg" xmlns:xlink="http://www.w3.org/1999/xlink">
    <!-- Generator: Sketch 52.2 (67145) - http://www.bohemiancoding.com/sketch -->
    <title>集控器</title>
    <desc>Created with Sketch.</desc>
    <g id="Page-1" stroke="none" stroke-width="1" fill="none" fill-rule="evenodd">
        <g id="集控器" fill="#50CF99" fill-rule="nonzero">
            <path d="M21.5536582,24.9815538 L3.56000745,24.9815538 C1.66159475,24.9815538 0.093340798,23.5178501 0.0933407617,21.7459983 L0.0933407617,4.18155383 C0.0933407617,2.40970197 1.66159475,0.945998286 3.56000745,0.945998253 L21.5536582,0.945998253 C23.4520709,0.945998253 25.0203249,2.40970197 25.0203249,4.18155383 L25.0203249,21.7459983 C25.1028646,23.5178501 23.4520709,24.9815538 21.5536582,24.9815538 Z M3.56000745,2.40970197 C2.56953125,2.40970197 1.74413444,3.18007236 1.74413441,4.10451678 L1.74413441,21.6689612 C1.74413441,22.5934057 2.56953125,23.363776 3.56000745,23.363776 L21.5536582,23.363776 C22.5441344,23.363776 23.3695312,22.5934057 23.3695312,21.6689612 L23.3695312,4.18155383 C23.3695312,3.25710937 22.5441344,2.48673902 21.5536582,2.48673899 L3.56000745,2.48673899 L3.56000745,2.40970197 Z" id="形状"></path>
            <path d="M8.71873762,14.3889612 C7.33748763,14.3889612 6.1187376,13.2514612 6.1187376,11.7889613 C6.1187376,10.3264612 7.25623762,9.18896123 8.71873762,9.18896123 C10.0999876,9.18896123 11.3187376,10.3264612 11.3187376,11.7889613 C11.3187376,13.1702112 10.1812376,14.3889613 8.71873762,14.3889612 Z M8.71873763,10.4889612 C8.06873764,10.4889612 7.4187376,11.0306279 7.4187376,11.7889613 C7.4187376,12.5472946 7.96040428,13.0889613 8.71873763,13.0889612 C9.47707097,13.0889612 10.0187377,12.5472946 10.0187376,11.7889613 C10.0187376,11.030628 9.47707092,10.4889612 8.71873763,10.4889612 Z" id="形状"></path>
            <path d="M8.8012773,10.2674798 C8.28127731,10.2674798 7.93461061,9.95933162 7.93461061,9.49710937 L7.93461061,6.80081309 C7.93461061,6.33859088 8.28127727,6.03044271 8.8012773,6.03044271 C9.32127732,6.03044271 9.66794398,6.33859085 9.66794394,6.80081309 L9.66794394,9.49710937 C9.66794394,9.88229457 9.32127729,10.2674798 8.8012773,10.2674798 Z M8.80127728,20.1282205 C8.28127729,20.1282205 7.93461059,19.8200723 7.93461059,19.3578501 L7.93461059,14.0422946 C7.93461059,13.5800724 8.28127725,13.2719242 8.80127728,13.2719242 C9.3212773,13.2719242 9.66794396,13.5800723 9.66794393,14.0422946 L9.66794393,19.3578501 C9.66794393,19.8200723 9.32127727,20.1282205 8.80127728,20.1282205 Z" id="形状"></path>
            <path d="M16.3123884,16.9311834 C14.9311384,16.9311834 13.7123884,15.7936834 13.7123884,14.3311834 C13.7123884,12.8686834 14.8498884,11.7311834 16.3123884,11.7311834 C17.7748884,11.7311834 18.9123884,12.8686834 18.9123884,14.3311834 C18.8311384,15.7936834 17.6936384,16.9311834 16.3123884,16.9311834 Z M15.0123884,14.3311834 C15.0123884,15.0895168 15.5540551,15.6311834 16.3123884,15.6311834 C17.0707218,15.6311834 17.6123884,15.0895168 17.6123884,14.3311834 C17.6123884,13.5728501 17.0707218,13.0311834 16.3123884,13.0311834 C15.5540551,13.0311834 15.0123884,13.5728501 15.0123884,14.3311834 Z" id="形状"></path>
            <path d="M15.5282614,19.3139079 L15.5282614,16.6176116 C15.5282614,16.1553894 15.874928,15.8472412 16.3949281,15.8472412 C16.9149281,15.8472412 17.2615948,16.1553894 17.2615947,16.6176116 L17.2615947,19.3139079 C17.2615947,19.7761301 16.8282614,20.0842783 16.3949281,20.0842782 C15.8749281,20.0842782 15.5282614,19.7761301 15.5282614,19.3139079 Z M16.3949281,12.886739 C15.8749281,12.886739 15.5282614,12.5785908 15.5282614,12.1163686 L15.5282614,6.80081309 C15.5282614,6.33859088 15.8749281,6.03044271 16.3949281,6.03044271 C16.9149281,6.03044271 17.2615948,6.33859085 17.2615947,6.80081309 L17.2615947,12.1163686 C17.2615947,12.5015538 16.8282614,12.886739 16.3949281,12.886739 Z" id="形状"></path>
        </g>
    </g>
</svg>